<mxfile host="app.diagrams.net" modified="2023-11-08T14:43:57.213Z" agent="Mozilla/5.0 (Windows NT 10.0; Win64; x64) AppleWebKit/537.36 (KHTML, like Gecko) Chrome/119.0.0.0 Safari/537.36" version="22.0.8" etag="25my8i0F0SpXHKyxIF2v" type="github">
  <diagram name="Page-1" id="ennHuiY5mPsxQHC_h3BI">
    <mxGraphModel>
      <root>
        <mxCell id="0" />
        <mxCell id="1" parent="0" />
      </root>
    </mxGraphModel>
  </diagram>
</mxfile>
